<svg width="24" height="25" viewBox="0 0 24 25" fill="none" xmlns="http://www.w3.org/2000/svg">
<g id="Layout / 2x2 / 24px / Contour">
<g id="Union">
<path fill-rule="evenodd" clip-rule="evenodd" d="M6 3.5C4.34315 3.5 3 4.84314 3 6.5V8.5C3 10.1569 4.34315 11.5 6 11.5H8C9.65685 11.5 11 10.1569 11 8.5V6.5C11 4.84315 9.65685 3.5 8 3.5H6ZM5 6.5C5 5.94772 5.44771 5.5 6 5.5H8C8.55228 5.5 9 5.94772 9 6.5V8.5C9 9.05228 8.55228 9.5 8 9.5H6C5.44772 9.5 5 9.05228 5 8.5V6.5Z" fill="white"/>
<path fill-rule="evenodd" clip-rule="evenodd" d="M6 13.5C4.34315 13.5 3 14.8431 3 16.5V18.5C3 20.1569 4.34315 21.5 6 21.5H8C9.65685 21.5 11 20.1569 11 18.5V16.5C11 14.8431 9.65685 13.5 8 13.5H6ZM5 16.5C5 15.9477 5.44771 15.5 6 15.5H8C8.55228 15.5 9 15.9477 9 16.5V18.5C9 19.0523 8.55228 19.5 8 19.5H6C5.44772 19.5 5 19.0523 5 18.5V16.5Z" fill="white"/>
<path fill-rule="evenodd" clip-rule="evenodd" d="M13 16.5C13 14.8431 14.3431 13.5 16 13.5H18C19.6569 13.5 21 14.8431 21 16.5V18.5C21 20.1569 19.6569 21.5 18 21.5H16C14.3431 21.5 13 20.1569 13 18.5V16.5ZM16 15.5C15.4477 15.5 15 15.9477 15 16.5V18.5C15 19.0523 15.4477 19.5 16 19.5H18C18.5523 19.5 19 19.0523 19 18.5V16.5C19 15.9477 18.5523 15.5 18 15.5H16Z" fill="white"/>
<path fill-rule="evenodd" clip-rule="evenodd" d="M16 3.5C14.3431 3.5 13 4.84314 13 6.5V8.5C13 10.1569 14.3431 11.5 16 11.5H18C19.6569 11.5 21 10.1569 21 8.5V6.5C21 4.84315 19.6569 3.5 18 3.5H16ZM15 6.5C15 5.94772 15.4477 5.5 16 5.5H18C18.5523 5.5 19 5.94772 19 6.5V8.5C19 9.05228 18.5523 9.5 18 9.5H16C15.4477 9.5 15 9.05228 15 8.5V6.5Z" fill="white"/>
</g>
</g>
</svg>
