<svg width="24" height="25" viewBox="0 0 24 25" fill="none" xmlns="http://www.w3.org/2000/svg">
<g id="Component 3/Business/Calendar/24px/Property 45">
<path id="Union" fill-rule="evenodd" clip-rule="evenodd" d="M17 4.5C19.7614 4.5 22 6.73858 22 9.5V15.5C22 18.2614 19.7614 20.5 17 20.5H7C4.23858 20.5 2 18.2614 2 15.5V9.5C2 6.73858 4.23858 4.5 7 4.5C7 3.94772 7.44771 3.5 8 3.5C8.55228 3.5 9 3.94772 9 4.5H15C15 3.94772 15.4477 3.5 16 3.5C16.5523 3.5 17 3.94772 17 4.5ZM8 7.5C7.44772 7.5 7 7.05228 7 6.5C5.34315 6.5 4 7.84315 4 9.5H20C20 7.84315 18.6569 6.5 17 6.5C17 7.05228 16.5523 7.5 16 7.5C15.4477 7.5 15 7.05228 15 6.5H9C9 7.05228 8.55228 7.5 8 7.5ZM4 11.5H20V15.5C20 17.1569 18.6569 18.5 17 18.5H7C5.34315 18.5 4 17.1569 4 15.5V11.5Z" fill="#464A54"/>
</g>
</svg>
