<svg width="24" height="25" viewBox="0 0 24 25" fill="none" xmlns="http://www.w3.org/2000/svg">
<g id="u:book-open">
<path id="Vector" d="M21.17 2.56012C20.4532 2.43665 19.7274 2.3731 19 2.37012C16.5184 2.36809 14.0885 3.07969 12 4.42012C9.90615 3.09729 7.47665 2.40315 5 2.42012C4.27265 2.4231 3.5468 2.48665 2.83 2.61012C2.59521 2.6506 2.38258 2.77358 2.23041 2.95691C2.07825 3.14025 1.99654 3.37189 2 3.61012V15.6101C1.99786 15.7571 2.02813 15.9027 2.08865 16.0366C2.14917 16.1705 2.23847 16.2894 2.35017 16.3849C2.46188 16.4803 2.59326 16.55 2.73496 16.589C2.87666 16.6279 3.02519 16.6351 3.17 16.6101C4.60302 16.362 6.0712 16.4032 7.48807 16.7312C8.90493 17.0592 10.2418 17.6675 11.42 18.5201L11.54 18.5901H11.65C11.7609 18.6363 11.8799 18.6601 12 18.6601C12.1201 18.6601 12.2391 18.6363 12.35 18.5901H12.46L12.58 18.5201C13.75 17.6484 15.083 17.0205 16.5001 16.6735C17.9173 16.3265 19.3897 16.2675 20.83 16.5001C20.9748 16.5251 21.1233 16.5179 21.265 16.479C21.4067 16.44 21.5381 16.3703 21.6498 16.2749C21.7615 16.1794 21.8508 16.0605 21.9114 15.9266C21.9719 15.7927 22.0021 15.6471 22 15.5001V3.50012C21.9896 3.27228 21.9016 3.05483 21.7506 2.88386C21.5997 2.71289 21.3948 2.59866 21.17 2.56012ZM11 15.8501C9.14988 14.8768 7.09052 14.3688 5 14.3701C4.67 14.3701 4.34 14.3701 4 14.3701V4.37012C4.33306 4.35093 4.66694 4.35093 5 4.37012C7.13339 4.36776 9.22022 4.99381 11 6.17012V15.8501ZM20 14.4101C19.66 14.4101 19.33 14.4101 19 14.4101C16.9095 14.4088 14.8501 14.9168 13 15.8901V6.17012C14.7798 4.99381 16.8666 4.36776 19 4.37012C19.3331 4.35093 19.6669 4.35093 20 4.37012V14.4101ZM21.17 18.5601C20.4532 18.4367 19.7274 18.3731 19 18.3701C16.5184 18.3681 14.0885 19.0797 12 20.4201C9.91152 19.0797 7.48164 18.3681 5 18.3701C4.27265 18.3731 3.5468 18.4367 2.83 18.5601C2.69983 18.5808 2.57502 18.627 2.46276 18.696C2.3505 18.7651 2.253 18.8557 2.17587 18.9625C2.09873 19.0694 2.04349 19.1905 2.0133 19.3188C1.98312 19.4471 1.9786 19.5801 2 19.7101C2.05082 19.9698 2.20249 20.1988 2.42179 20.3468C2.64109 20.4949 2.91014 20.55 3.17 20.5001C4.60302 20.252 6.0712 20.2932 7.48807 20.6212C8.90493 20.9492 10.2418 21.5575 11.42 22.4101C11.5894 22.5307 11.7921 22.5955 12 22.5955C12.2079 22.5955 12.4106 22.5307 12.58 22.4101C13.7582 21.5575 15.0951 20.9492 16.5119 20.6212C17.9288 20.2932 19.397 20.252 20.83 20.5001C21.0899 20.55 21.3589 20.4949 21.5782 20.3468C21.7975 20.1988 21.9492 19.9698 22 19.7101C22.0214 19.5801 22.0169 19.4471 21.9867 19.3188C21.9565 19.1905 21.9013 19.0694 21.8241 18.9625C21.747 18.8557 21.6495 18.7651 21.5372 18.696C21.425 18.627 21.3002 18.5808 21.17 18.5601Z" fill="#374957"/>
</g>
</svg>
