<svg width="25" height="25" viewBox="0 0 25 25" fill="none" xmlns="http://www.w3.org/2000/svg">
<g id="Social / User / 24px / Contour">
<g id="Union">
<path fill-rule="evenodd" clip-rule="evenodd" d="M12.5 2.5C9.73858 2.5 7.5 4.73858 7.5 7.5C7.5 10.2614 9.73858 12.5 12.5 12.5C15.2614 12.5 17.5 10.2614 17.5 7.5C17.5 4.73858 15.2614 2.5 12.5 2.5ZM9.5 7.5C9.5 5.84315 10.8431 4.5 12.5 4.5C14.1569 4.5 15.5 5.84315 15.5 7.5C15.5 9.15685 14.1569 10.5 12.5 10.5C10.8431 10.5 9.5 9.15685 9.5 7.5Z" fill="#464A54"/>
<path fill-rule="evenodd" clip-rule="evenodd" d="M12.5 14C8.0502 14 5.57689 15.5054 4.43312 16.5093C3.72723 17.1288 3.5 17.9996 3.5 18.7447C3.5 20.8187 5.18132 22.5 7.25534 22.5H17.7447C19.8187 22.5 21.5 20.8187 21.5 18.7447C21.5 17.9996 21.2728 17.1288 20.5669 16.5093C19.4231 15.5054 16.9498 14 12.5 14ZM5.75244 18.0124C6.53934 17.3217 8.54626 16 12.5 16C16.4537 16 18.4607 17.3217 19.2476 18.0124C19.3856 18.1335 19.5 18.3668 19.5 18.7447C19.5 19.7141 18.7141 20.5 17.7447 20.5H7.25534C6.28589 20.5 5.5 19.7141 5.5 18.7447C5.5 18.3668 5.61441 18.1335 5.75244 18.0124Z" fill="#464A54"/>
</g>
</g>
</svg>
